<svg width="24" height="26" viewBox="0 0 24 26" fill="none" xmlns="http://www.w3.org/2000/svg">
<path opacity="0.4" d="M16.6203 23.1111H7.3797C4.68923 23.1111 2.5 20.8326 2.5 18.0314V12.4332C2.5 9.632 4.68923 7.35352 7.3797 7.35352H16.6203C19.3108 7.35352 21.5 9.632 21.5 12.4332V18.0314C21.5 20.8326 19.3108 23.1111 16.6203 23.1111" fill="#C67C4E"/>
<path d="M15.7551 10.5051C15.344 10.5051 15.0103 10.165 15.0103 9.74611V6.67795C15.0103 4.99107 13.6635 3.6189 12.0089 3.6189C11.2472 3.6189 10.4477 3.93057 9.87861 4.50434C9.30854 5.08012 8.99272 5.84615 8.98974 6.66378V9.74611C8.98974 10.165 8.65604 10.5051 8.24487 10.5051C7.8337 10.5051 7.5 10.165 7.5 9.74611V6.67795C7.50497 5.4343 7.97771 4.28677 8.82984 3.42765C9.68098 2.5665 10.7814 2.13441 12.0119 2.10101C14.4849 2.10101 16.5 4.15421 16.5 6.67795V9.74611C16.5 10.165 16.1663 10.5051 15.7551 10.5051" fill="#C67C4E"/>
</svg>
