<svg width="24" height="26" viewBox="0 0 24 26" fill="none" xmlns="http://www.w3.org/2000/svg">
<path opacity="0.4" d="M11.776 22.9403C9.49295 21.459 7.37065 19.7122 5.44792 17.7321C4.09053 16.3183 3.05389 14.592 2.41719 12.6851C1.27956 8.96628 2.60384 4.71619 6.30114 3.45445C8.25265 2.81063 10.3751 3.20586 12.0071 4.51697V4.51697C13.6397 3.20732 15.7614 2.81223 17.713 3.45445C21.4103 4.71619 22.7435 8.96628 21.6059 12.6851C20.9743 14.5902 19.9439 16.3163 18.5929 17.7321C16.6684 19.7101 14.5463 21.4566 12.2648 22.9403L12.016 23.1111L11.776 22.9403Z" fill="#C67C4E"/>
<path d="M12.0109 23.1111L11.776 22.9403C9.49013 21.4591 7.36487 19.7124 5.43902 17.7321C4.0752 16.3202 3.03238 14.5938 2.39052 12.6851C1.26177 8.96629 2.58605 4.71621 6.28335 3.45446C8.23486 2.81064 10.3853 3.20617 12.0109 4.52826V23.1111Z" fill="#C67C4E"/>
<path d="M18.2304 10.5042V10.5042C18.0296 10.4906 17.8425 10.3851 17.7131 10.2125C17.5836 10.0399 17.5232 9.81524 17.5459 9.59123V9.59123C17.5677 8.8534 17.168 8.18181 16.5517 7.92051C16.1609 7.80845 15.9243 7.36385 16.022 6.92539C16.1148 6.49398 16.4993 6.22574 16.8858 6.32284C16.9346 6.33134 16.9816 6.34991 17.0244 6.37761C18.2601 6.87716 19.0601 8.22163 18.9965 9.69165C18.9944 9.91446 18.9117 10.1268 18.7673 10.28C18.6229 10.4332 18.4291 10.5141 18.2304 10.5042Z" fill="#C67C4E"/>
</svg>
