<svg width="24" height="26" viewBox="0 0 24 26" fill="none" xmlns="http://www.w3.org/2000/svg">
<path d="M9.14373 21.8317V18.61C9.14372 17.7936 9.77567 17.1303 10.5584 17.1251H13.4326C14.2189 17.1251 14.8563 17.7899 14.8563 18.61V18.61V21.8224C14.8563 22.5305 15.404 23.106 16.0829 23.1111H18.0438C18.9596 23.1136 19.8388 22.7359 20.4872 22.0614C21.1356 21.3868 21.5 20.4709 21.5 19.5158V10.3641C21.5 9.59257 21.1721 8.86071 20.6046 8.3657L13.943 2.80934C12.7785 1.83747 11.1154 1.86886 9.98539 2.88404L3.46701 8.3657C2.87274 8.84612 2.51755 9.58015 2.5 10.3641V19.5064C2.5 21.4972 4.04738 23.1111 5.95617 23.1111H7.87229C8.19917 23.1136 8.51349 22.9799 8.74547 22.7397C8.97746 22.4995 9.10793 22.1726 9.10792 21.8317H9.14373Z" fill="#C67C4E"/>
</svg>
