<svg width="24" height="26" viewBox="0 0 24 26" fill="none" xmlns="http://www.w3.org/2000/svg">
<path d="M19.7695 12.2335C19.039 11.3374 18.7071 10.5608 18.7071 9.24146V8.79287C18.7071 7.07362 18.3304 5.96589 17.5115 4.85816C16.2493 3.13785 14.1244 2.10101 12.0442 2.10101H11.9558C9.91935 2.10101 7.86106 3.09024 6.577 4.74073C5.71333 5.87067 5.29293 7.02601 5.29293 8.79287V9.24146C5.29293 10.5608 4.98284 11.3374 4.23049 12.2335C3.67691 12.8937 3.5 13.7422 3.5 14.6605C3.5 15.5799 3.78723 16.4507 4.36367 17.1585C5.11602 18.007 6.17846 18.5487 7.26375 18.6429C8.83505 18.8312 10.4063 18.9021 12.0005 18.9021C13.5937 18.9021 15.165 18.7836 16.7372 18.6429C17.8215 18.5487 18.884 18.007 19.6363 17.1585C20.2118 16.4507 20.5 15.5799 20.5 14.6605C20.5 13.7422 20.3231 12.8937 19.7695 12.2335" fill="#C67C4E"/>
<path opacity="0.4" d="M14.0087 20.1995C13.5088 20.0873 10.4626 20.0873 9.96269 20.1995C9.53533 20.3032 9.07318 20.5444 9.07318 21.0734C9.09803 21.578 9.37929 22.0235 9.76888 22.3059L9.76789 22.307C10.2718 22.7196 10.8631 22.982 11.4823 23.0762C11.8123 23.1238 12.1482 23.1217 12.4901 23.0762C13.1083 22.982 13.6996 22.7196 14.2035 22.307L14.2025 22.3059C14.5921 22.0235 14.8734 21.578 14.8982 21.0734C14.8982 20.5444 14.4361 20.3032 14.0087 20.1995" fill="#C67C4E"/>
</svg>
